
<svg xmlns="http://www.w3.org/2000/svg" width="32" height="32" viewBox="0 0 32 32">
  <defs>
    <linearGradient id="gradient" x1="0%" y1="0%" x2="100%" y2="100%">
      <stop offset="0%" style="stop-color:#2E8B57" />
      <stop offset="100%" style="stop-color:#FF8C00" />
    </linearGradient>
  </defs>
  <g stroke="none" stroke-width="1" fill="none" fill-rule="evenodd">
    <path d="M22,10 L22,20 C22,21.1045695 21.1045695,22 20,22 L8,22 C6.8954305,22 6,21.1045695 6,20 L6,10 C6,8.8954305 6.8954305,8 8,8 L20,8 C21.1045695,8 22,8.8954305 22,10 Z" fill="#2E8B57" />
    <path d="M15,2 C16.6568542,2 18,3.34314575 18,5 L18,8 L12,8 L12,5 C12,3.34314575 13.3431458,2 15,2 Z" fill="#2E8B57" />
    <circle cx="24" cy="8" r="4" fill="#FF8C00" />
    <path d="M10,14 L18,14" stroke="#FFFFFF" stroke-width="2" stroke-linecap="round" />
    <path d="M10,17 L18,17" stroke="#FFFFFF" stroke-width="2" stroke-linecap="round" />
  </g>
</svg>
